<!-- Thanks, Fiona Yeung, from The Noun Project, http://thenounproject.com/noun/fullscreen/#icon-No16354 -->

<svg xmlns="http://www.w3.org/2000/svg" xmlns:xlink="http://www.w3.org/1999/xlink" version="1.1" id="Layer_1" x="0px" y="0px" width="100px" height="100px" viewBox="0 0 7200 7200" style="fill:#5d5d5d" xml:space="preserve">
<path d="M6109.247,562.87H1087.314c-526.066,0-951.926,426.105-951.926,951.559v3436.46c0,525.451,425.859,951.558,951.926,951.558  h5021.933c525.704,0,951.81-426.106,951.81-951.558v-3436.46C7061.057,988.976,6634.95,562.87,6109.247,562.87z M6864.83,4864.05  c0,494.012-400.61,894.622-894.858,894.622H1248.521c-494.59,0-894.968-400.61-894.968-894.622V1633.207  c0-494.013,400.378-894.623,894.968-894.623h4721.451c494.248,0,894.858,400.61,894.858,894.623V4864.05z"></path>
<g>
	<path d="M6370.438,4414.955c29.949,285.346,72.724,580.797,113.519,874.03c-293.104,40.798-590.289,78.517-872.549,127.449   c50.293-90.474,107.483-149.636,174.045-246.519c4.063-5.793,61.261-75.806,60.521-79.871   c-1.361-23.543-175.396-139.529-200.539-158.881c-187.728-142.117-325.166-245.9-512.883-388.636   c-31.929-23.912-102.062-63.972-103.414-71.86c-4.066-23.787,110.928-146.556,127.196-168.246   c62.621-82.953,95.283-131.271,138.792-191.547c189.695,142.242,491.062,365.959,720.206,539.383   c29.332,22.186,91.821,80.611,97.247,79.992c28.6-2.709,111.548-139.525,128.561-161.222   C6290.811,4503.703,6321.504,4461.919,6370.438,4414.955z"></path>
</g>
<g>
	<path d="M922.763,2125.176c-29.332-285.343-70.752-580.794-110.928-874.274c293.104-39.442,590.404-76.543,872.671-124.122   c-50.417,90.103-107.48,148.897-174.786,245.777c-4.065,5.547-61.254,75.559-60.519,79.625   c1.359,23.419,174.786,140.146,199.928,159.867c187.725,142.857,324.415,246.889,511.521,390.362   c32.539,24.159,101.938,64.587,103.291,72.476c4.066,23.418-111.547,145.938-127.816,167.633   c-62.613,82.706-95.284,130.899-139.409,190.805c-189.078-142.857-489.702-367.682-718.228-542.093   c-29.333-22.062-91.829-80.981-97.372-80.242c-28.474,2.342-111.554,139.038-128.435,160.853   C1002.264,2036.799,971.696,2078.338,922.763,2125.176z"></path>
</g>
<g>
	<path d="M5533.505,1073.038c280.173,62.492,574.021,115.618,865.159,169.975c-54.48,291.507-112.906,584.986-156.415,867.866   c-70.134-76.174-107.489-149.267-178.604-243.067c-4.437-5.424-52.389-82.337-56.451-83.077   c-22.433-6.039-188.098,122.149-214.594,139.776c-194.502,132.625-336.625,230.248-531.121,362.874   c-33.035,22.803-93.189,76.174-101.072,75.188c-24.161-4.066-103.664-151.607-119.314-174.412   c-58.551-85.418-93.926-132.011-137.438-192.161c195.244-134.722,503.267-349.315,740.666-511.524   c30.319-20.337,105.509-61.135,106.127-66.929c7.149-27.98-96.267-150.006-111.554-173.179   C5592.673,1176.7,5562.723,1134.175,5533.505,1073.038z"></path>
</g>
<g>
	<path d="M1630.765,5510.357c-279.554-63.23-572.665-117.713-864.169-172.81c55.835-290.767,115.249-584.246,159.869-867.127   c69.764,76.421,107.11,149.269,177.491,244.176c4.065,5.424,52.01,81.968,56.083,82.215   c22.801,6.534,188.459-121.04,215.333-138.666c194.874-132.381,337.36-228.892,532.599-360.532   c33.281-23.172,94.172-76.544,101.567-75.188c23.543,3.449,102.797,152.349,118.449,174.903   c58.795,85.665,93.801,131.519,136.696,192.407c-195.615,134.352-504.379,347.59-742.76,509.061   c-29.951,20.459-105.387,60.89-106.74,66.313c-6.901,27.979,96.144,150.004,111.548,173.179   C1572.588,5406.574,1601.796,5448.852,1630.765,5510.357z"></path>
</g>
</svg>