<!-- Thank you, Magdalene Kan, from The Noun Project
     http://thenounproject.com/noun/finger-frame/#icon-No14238 -->
<svg xmlns="http://www.w3.org/2000/svg" xmlns:xlink="http://www.w3.org/1999/xlink" version="1.1" id="Layer_1" x="0px" y="0px" width="100px" height="100px" viewBox="0 0 100 100" enable-background="new 0 0 100 100" xml:space="preserve">
<g>
	<path fill="none" d="M0.776,69.235c0-21.995,0.011-43.989-0.034-65.982C0.74,2.108,1.037,1.952,2.086,1.953   c32.23,0.031,64.46,0.032,96.692-0.004c1.056-0.001,1.284,0.221,1.238,1.255c-0.097,2.225-0.029,4.458-0.029,6.688   c-0.304-0.01-0.608-0.024-0.912-0.028c-6.053-0.087-11.973,1.268-17.967,1.672c-5.148,0.348-10.27,1.171-15.449,1.068   c-1.388-0.027-2.798,0.042-3.893,0.992c-1.533,1.33-2.963,2.783-4.057,4.51c-1.003,1.583-1.031,3.344-1.214,5.18   c-0.167,1.674-1.662,3.182-1.587,5.124c0.101,2.579-0.281,2.85-2.877,3.138c-2.107,0.233-4.264,0.083-6.319,0.764   c-2.257,0.749-4.546,0.828-6.908,0.52c-1.597-0.208-3.242-0.144-4.857-0.064c-1.383,0.068-2.046,1.482-1.338,2.675   c0.551,0.931,1.421,1.409,2.448,1.658c4.863,1.183,9.798,1.666,14.759,0.979c4.649-0.643,9.292-0.589,13.945-0.366   c1.558,0.075,3.114,0.436,4.591,1.006c2.802,1.083,3.273,2.218,2.219,5.048c-0.694,1.866-1.85,3.492-2.661,5.297   c-1.306,2.909-0.702,7.397,1.38,9.414c0.707,0.685,1.529,1.662,2.548,1.357c0.957-0.287,0.731-1.552,0.965-2.407   c0.065-0.241,0.089-0.5,0.092-0.753c0.046-3.025,1.294-5.668,2.494-8.365c1.578-3.548,4.793-5.869,6.605-9.241   c1.447-2.691,4.038-4.561,5.606-7.169c0.935-1.556,2.19-2.265,3.893-2.535c2.838-0.449,5.664,0.315,8.494,0.003   c0,23.13-0.009,46.258,0.028,69.387c0.001,1.042-0.203,1.248-1.246,1.246c-32.259-0.035-64.517-0.035-96.776,0   c-1.042,0.002-1.289-0.198-1.249-1.247c0.098-2.532,0.032-5.071,0.032-7.607c3.989-1.664,8.19-2.647,12.294-3.943   c2.95-0.934,5.733-1.973,8.77-0.578c0.086,0.04,0.201,0.014,0.302,0.027c5.358,0.688,10.654,0.333,15.862-1.08   c1.809-0.49,3.797-1.046,4.57-2.94c1.026-2.519,1.893-5.136,2.268-7.849c0.14-1.013,0.393-1.805,1.143-2.528   c1.179-1.139,1.67-3.343,0.798-4.626c-1.124-1.653,0.075-1.67,1.078-1.886c0.538-0.114,1.108-0.096,1.665-0.101   c3.144-0.029,6.295,0.066,9.431-0.109c2.161-0.12,4.236,0.085,6.312,0.617c1.472,0.378,2.936,0.815,4.485,0.736   c1.825-0.095,2.678-1.505,1.923-3.186c-0.425-0.949-1.201-1.483-2.136-1.824c-4.756-1.738-9.679-2.604-14.731-2.672   c-2.478-0.033-4.976,0.339-7.432,0.132c-2.475-0.208-4.938-0.526-7.424-0.438c-1.573,0.055-2.975-0.467-4.406-1.01   c-1.622-0.614-2.08-1.743-1.841-3.357c0.265-1.784,0.969-3.4,1.72-5.014c1.809-3.892,0.986-7.661-2.198-10.443   c-0.928-0.812-2.022-1.222-3.071-0.667c-0.916,0.484-0.502,1.602-0.267,2.36c0.953,3.061,0.17,5.837-1.334,8.447   c-2.707,4.698-6.112,8.909-9.483,13.134c-1.922,2.41-4.297,3.955-7.468,4.503C7.971,67.475,4.297,68.04,0.776,69.235z"></path>
	<path fill-rule="evenodd" clip-rule="evenodd" d="M0.776,69.235c3.521-1.195,7.195-1.761,10.83-2.385   c3.17-0.548,5.546-2.093,7.468-4.503c3.371-4.225,6.776-8.436,9.483-13.134c1.504-2.609,2.287-5.386,1.334-8.447   c-0.235-0.758-0.649-1.876,0.267-2.36c1.049-0.555,2.144-0.144,3.071,0.667c3.184,2.782,4.007,6.552,2.198,10.443   c-0.75,1.613-1.455,3.229-1.72,5.014c-0.239,1.614,0.219,2.743,1.841,3.357c1.431,0.543,2.833,1.064,4.406,1.01   c2.486-0.089,4.95,0.229,7.424,0.438c2.457,0.207,4.955-0.165,7.432-0.132c5.053,0.068,9.976,0.934,14.731,2.672   c0.935,0.341,1.711,0.875,2.136,1.824c0.755,1.681-0.098,3.091-1.923,3.186c-1.55,0.079-3.014-0.358-4.485-0.736   c-2.075-0.532-4.15-0.737-6.312-0.617c-3.136,0.176-6.287,0.08-9.431,0.109c-0.556,0.005-1.127-0.014-1.665,0.101   c-1.003,0.216-2.202,0.232-1.078,1.886c0.872,1.283,0.38,3.487-0.798,4.626c-0.75,0.724-1.003,1.516-1.143,2.528   c-0.375,2.713-1.241,5.33-2.268,7.849c-0.773,1.895-2.761,2.45-4.57,2.94c-5.208,1.413-10.504,1.769-15.862,1.08   c-0.101-0.014-0.215,0.013-0.302-0.027c-3.036-1.395-5.82-0.355-8.77,0.578c-4.104,1.296-8.306,2.279-12.294,3.943   C0.776,83.842,0.776,76.539,0.776,69.235z"></path>
	<path fill-rule="evenodd" clip-rule="evenodd" d="M99.987,29.367c-2.83,0.312-5.656-0.452-8.494-0.003   c-1.702,0.27-2.958,0.979-3.893,2.535c-1.568,2.609-4.159,4.479-5.606,7.169c-1.812,3.372-5.027,5.693-6.605,9.241   c-1.2,2.697-2.448,5.34-2.494,8.365c-0.003,0.253-0.026,0.512-0.092,0.753c-0.233,0.855-0.008,2.12-0.965,2.407   c-1.019,0.305-1.841-0.673-2.548-1.357c-2.082-2.017-2.686-6.505-1.38-9.414c0.812-1.805,1.967-3.431,2.661-5.297   c1.055-2.83,0.583-3.965-2.219-5.048c-1.477-0.57-3.033-0.931-4.591-1.006c-4.652-0.224-9.296-0.277-13.945,0.366   c-4.96,0.687-9.896,0.204-14.759-0.979c-1.027-0.249-1.897-0.727-2.448-1.658c-0.708-1.193-0.045-2.607,1.338-2.675   c1.616-0.08,3.261-0.143,4.857,0.064c2.362,0.308,4.65,0.229,6.908-0.52c2.055-0.681,4.212-0.531,6.319-0.764   c2.596-0.288,2.978-0.559,2.877-3.138c-0.075-1.942,1.42-3.45,1.587-5.124c0.183-1.836,0.211-3.596,1.214-5.18   c1.094-1.727,2.523-3.18,4.057-4.51c1.095-0.95,2.505-1.019,3.893-0.992c5.18,0.103,10.301-0.721,15.449-1.068   c5.994-0.404,11.914-1.759,17.967-1.672c0.304,0.004,0.608,0.019,0.912,0.028C99.987,16.383,99.987,22.875,99.987,29.367z"></path>
</g>
</svg>